<svg t="1686315258521" class="icon" viewBox="0 0 1024 1024" version="1.1" xmlns="http://www.w3.org/2000/svg" p-id="2208"
    width="200" height="200">
    <path
        d="M700.864 444.8 640 444.8 640 384l60.864 0L700.864 444.8zM700.864 514.432 640 514.432l0 60.8 60.864 0L700.864 514.432zM700.864 640 640 640l0 60.8 60.864 0L700.864 640zM700.864 771.264 640 771.264 640 832l60.864 0L700.864 771.264zM831.68 514.432l-60.864 0 0 60.8 60.864 0L831.68 514.432zM831.68 640l-60.864 0 0 60.8 60.864 0L831.68 640zM831.68 771.264l-60.864 0L770.816 832l60.864 0L831.68 771.264zM66.752 241.92l0 544.768 442.944 44.16L509.696 195.136 66.752 241.92zM410.496 663.936c-8.704 5.632-15.936 7.488-21.76 5.632-5.76-1.856-10.944-6.144-15.616-12.608L288.32 539.008l-84.608 118.464c-9.984 14.016-22.4 16-37.376 6.016-6.208-3.968-10.112-9.344-11.904-16.064-1.664-6.656 0.064-13.824 5.376-21.248l95.04-133.568L171.968 377.344C168.512 372.032 167.68 365.888 169.6 358.848c1.792-6.976 5.568-12.544 11.2-16.576 8.064-5.568 14.976-8.128 20.736-7.68s11.328 4.288 16.64 11.456l70.4 99.2 66.368-93.12C360.832 343.744 367.168 338.368 374.08 336s14.336-1.024 22.4 3.968C404.544 344.96 409.088 350.656 409.984 356.992s-0.768 12.736-5.12 18.88L321.792 492.096l99.392 140.032c3.136 4.352 4.096 9.408 3.072 15.168S418.56 658.688 410.496 663.936zM774.4 66.048 156.032 66.048C140.608 66.048 128 78.656 128 94.08l0 86.144 64-5.888L192 126.4l512 0L704 320l192 0 0 578.048L192 898.048l0-33.024 0-10.496-64-6.144 0 83.584C128 947.456 140.608 960 156.032 960l776 0C947.392 960 960 947.456 960 931.968L960 256 774.4 66.048zM766.4 258.048 766.4 134.4 896 258.048 766.4 258.048z"
        p-id="2209"></path>
</svg>