<svg t="1686318356236" class="icon" viewBox="0 0 1024 1024" version="1.1" xmlns="http://www.w3.org/2000/svg" p-id="954"
    width="200" height="200">
    <path
        d="M85.333333 512C85.333333 276.352 276.309333 85.333333 512 85.333333c235.648 0 426.666667 190.976 426.666667 426.666667 0 235.648-190.976 426.666667-426.666667 426.666667-235.648 0-426.666667-190.976-426.666667-426.666667z m376.64 74.325333l-105.642666-105.642666a21.248 21.248 0 0 0-30.122667 0.042666c-8.32 8.32-8.213333 21.973333-0.064 30.101334l120.810667 120.832a21.248 21.248 0 0 0 30.122666-0.085334l211.157334-211.157333a21.290667 21.290667 0 0 0 0-30.186667 21.397333 21.397333 0 0 0-30.250667 0.106667l-196.010667 195.989333z"
        p-id="955"></path>
</svg>